<svg
      fill="#e1e2fe"
      height="16"
      width="32"
      version="1.1"
      id="Layer_1"
      xmlns="http://www.w3.org/2000/svg"
      xmlnsXlink="http://www.w3.org/1999/xlink"
      viewBox="0 0 970 485"
      xmlSpace="preserve"
    >
      <g>
      <path d="M0,0v485h485V0H0z M455,455H30V30h425V455z" />
      <path d="M118.75,401.25c19.299,0,35-15.701,35-35s-15.701-35-35-35s-35,15.701-35,35S99.451,401.25,118.75,401.25z" />
      <path d="M366.25,153.75c19.299,0,35-15.701,35-35s-15.701-35-35-35s-35,15.701-35,35S346.951,153.75,366.25,153.75z" />
      <path d="M485,0v485h970V0H0z M940,455H455V30h485V455z" />
      <path d="M712.5,277.5c19.299,0,35-15.701,35-35s-15.701-35-35-35c-19.299,0-35,15.701-35,35S693.201,277.5,712.5,277.5z" />
    </g>
    </svg>